<?xml version="1.0" encoding="UTF-8" standalone="no"?>
<svg width="204px" height="52px" viewBox="0 0 204 52" version="1.1" xmlns="http://www.w3.org/2000/svg" xmlns:xlink="http://www.w3.org/1999/xlink" xmlns:sketch="http://www.bohemiancoding.com/sketch/ns">
    <!-- Generator: Sketch 3.4 (15575) - http://www.bohemiancoding.com/sketch -->
    <title>Group</title>
    <desc>Created with Sketch.</desc>
    <defs></defs>
    <g id="Welcome" stroke="none" stroke-width="1" fill="none" fill-rule="evenodd" sketch:type="MSPage">
        <g id="Desktop-HD" sketch:type="MSArtboardGroup" transform="translate(-120.000000, -23.000000)">
            <g id="Group" sketch:type="MSLayerGroup" transform="translate(120.000000, 23.000000)">
                <rect id="Rectangle-2" fill="#2C3E4F" sketch:type="MSShapeGroup" x="0" y="0" width="83.7857143" height="52"></rect>
                <rect id="Rectangle-2" fill="#2E81B7" sketch:type="MSShapeGroup" x="83.7857143" y="0" width="120.214286" height="52"></rect>
                <path d="M105.42674,35.3859649 L100.73087,20.084364 L100.610805,20.084364 C100.779786,23.1971726 100.864275,25.2738294 100.864275,26.3143968 L100.864275,35.3859649 L97.1689453,35.3859649 L97.1689453,15.8820935 L102.798654,15.8820935 L107.414481,30.7968187 L107.494524,30.7968187 L112.390503,15.8820935 L118.020211,15.8820935 L118.020211,35.3859649 L114.164795,35.3859649 L114.164795,26.1543103 C114.164795,25.7185171 114.171465,25.2160284 114.184806,24.6468292 C114.198146,24.0776299 114.258178,22.565717 114.364903,20.1110451 L114.244838,20.1110451 L109.215454,35.3859649 L105.42674,35.3859649 Z M132.081142,35.3859649 L131.29405,33.3582026 L131.187326,33.3582026 C130.502508,34.2208953 129.79769,34.8189902 129.07285,35.1525054 C128.34801,35.4860206 127.403065,35.6527757 126.237985,35.6527757 C124.806093,35.6527757 123.678828,35.2436699 122.856158,34.4254459 C122.033487,33.607222 121.622158,32.4421597 121.622158,30.9302241 C121.622158,29.3471386 122.175784,28.1798529 123.283055,27.428332 C124.390325,26.6768111 126.0601,26.2610351 128.292428,26.1809914 L130.880493,26.1009482 L130.880493,25.4472616 C130.880493,23.9353261 130.10675,23.1793696 128.559239,23.1793696 C127.367478,23.1793696 125.966735,23.5395606 124.356968,24.2599535 L123.009574,21.511802 C124.726065,20.6135344 126.629297,20.1644073 128.719325,20.1644073 C130.720417,20.1644073 132.254564,20.600194 133.321812,21.4717803 C134.389061,22.3433667 134.922677,23.6685139 134.922677,25.4472616 L134.922677,35.3859649 L132.081142,35.3859649 Z M130.880493,28.4755645 L129.306309,28.5289267 C128.123442,28.5645016 127.242975,28.7779482 126.664882,29.1692727 C126.086789,29.5605972 125.797747,30.1564687 125.797747,30.9569052 C125.797747,32.1041975 126.455874,32.677835 127.772147,32.677835 C128.714883,32.677835 129.468616,32.4065801 130.033369,31.864062 C130.598121,31.321544 130.880493,30.6011619 130.880493,29.7028943 L130.880493,28.4755645 Z M147.436105,20.1910884 C147.987517,20.1910884 148.445537,20.2311096 148.810181,20.3111532 L148.503348,24.1265481 C148.17428,24.0376107 147.774068,23.9931426 147.302699,23.9931426 C146.004214,23.9931426 144.992566,24.3266528 144.267726,24.9936832 C143.542887,25.6607136 143.180472,26.5945422 143.180472,27.7951969 L143.180472,35.3859649 L139.111607,35.3859649 L139.111607,20.4712397 L142.193272,20.4712397 L142.793597,22.9792615 L142.993705,22.9792615 C143.456179,22.1432501 144.080955,21.4695595 144.868051,20.9581695 C145.655147,20.4467795 146.511156,20.1910884 147.436105,20.1910884 L147.436105,20.1910884 Z M151.344884,16.6158233 C151.344884,15.2906562 152.083053,14.6280827 153.559413,14.6280827 C155.035774,14.6280827 155.773943,15.2906562 155.773943,16.6158233 C155.773943,17.2472788 155.589401,17.7386504 155.220311,18.0899531 C154.851221,18.4412558 154.297594,18.6169045 153.559413,18.6169045 C152.083053,18.6169045 151.344884,17.9498841 151.344884,16.6158233 L151.344884,16.6158233 Z M155.587176,35.3859649 L151.518311,35.3859649 L151.518311,20.4712397 L155.587176,20.4712397 L155.587176,35.3859649 Z M173.623587,35.3859649 L169.554722,35.3859649 L169.554722,26.6745914 C169.554722,25.5984491 169.36351,24.7913544 168.981079,24.2532832 C168.598648,23.715212 167.989436,23.4461805 167.153425,23.4461805 C166.015026,23.4461805 165.192368,23.8263821 164.685425,24.5867967 C164.178482,25.3472114 163.925014,26.6078799 163.925014,28.3688402 L163.925014,35.3859649 L159.856149,35.3859649 L159.856149,20.4712397 L162.964495,20.4712397 L163.511457,22.3789372 L163.738246,22.3789372 C164.191827,21.6585443 164.816603,21.113811 165.612592,20.7447208 C166.408582,20.3756307 167.313506,20.1910884 168.327393,20.1910884 C170.061672,20.1910884 171.377925,20.6602261 172.276193,21.5985155 C173.17446,22.5368049 173.623587,23.8908563 173.623587,25.6607103 L173.623587,35.3859649 Z M183.989188,23.0859858 C183.126495,23.0859858 182.450581,23.3594642 181.961426,23.9064291 C181.47227,24.4533941 181.192122,25.2293611 181.120972,26.2343536 L186.830723,26.2343536 C186.812936,25.2293611 186.550575,24.4533941 186.043631,23.9064291 C185.536688,23.3594642 184.851881,23.0859858 183.989188,23.0859858 L183.989188,23.0859858 Z M184.562831,35.6527757 C182.161522,35.6527757 180.284971,34.9902021 178.933123,33.6650351 C177.581275,32.339868 176.905361,30.4633173 176.905361,28.0353267 C176.905361,25.5361861 177.530136,23.6040504 178.779707,22.2388615 C180.029277,20.8736726 181.75686,20.1910884 183.962507,20.1910884 C186.070323,20.1910884 187.711193,20.7914067 188.885167,21.9920615 C190.05914,23.1927162 190.646118,24.8513736 190.646118,26.9680834 L190.646118,28.9424835 L181.027588,28.9424835 C181.072057,30.0986695 181.41446,31.0013704 182.05481,31.6506133 C182.695159,32.2998563 183.593413,32.6244729 184.749599,32.6244729 C185.647867,32.6244729 186.497206,32.53109 187.297642,32.3443215 C188.098079,32.157553 188.934078,31.8596172 189.805664,31.4505052 L189.805664,34.598873 C189.094165,34.9546225 188.333762,35.2192073 187.524432,35.3926352 C186.715101,35.5660631 185.727911,35.6527757 184.562831,35.6527757 L184.562831,35.6527757 Z" id="Marine" fill="#FFFFFF" sketch:type="MSShapeGroup"></path>
                <path d="M21.6677072,19.0438018 C20.1113029,19.0438018 18.9062194,19.6285564 18.0524205,20.798083 C17.1986216,21.9676096 16.7717285,23.5973628 16.7717285,25.6873914 C16.7717285,30.0364296 18.4037051,32.2109161 21.6677072,32.2109161 C23.0373429,32.2109161 24.6960003,31.8685123 26.6437291,31.1836944 L26.6437291,34.6522351 C25.0428561,35.3192655 23.2552415,35.6527757 21.2808315,35.6527757 C18.4437288,35.6527757 16.2736892,34.7923194 14.7706473,33.071381 C13.2676055,31.3504426 12.5160958,28.8802437 12.5160958,25.6607103 C12.5160958,23.6329379 12.8851805,21.8564402 13.6233608,20.3311641 C14.3615411,18.8058879 15.4221035,17.6363788 16.8050799,16.8226017 C18.1880562,16.0088246 19.8089158,15.6019422 21.6677072,15.6019422 C23.5620735,15.6019422 25.465305,16.0599628 27.3774588,16.9760179 L26.0434047,20.3378343 C25.3141181,19.9909785 24.5803957,19.6885959 23.8422154,19.4306775 C23.1040351,19.1727591 22.3792063,19.0438018 21.6677072,19.0438018 L21.6677072,19.0438018 Z M39.0504325,35.3859649 L34.3545619,20.084364 L34.2344971,20.084364 C34.4034781,23.1971726 34.4879674,25.2738294 34.4879674,26.3143968 L34.4879674,35.3859649 L30.7926374,35.3859649 L30.7926374,15.8820935 L36.4223458,15.8820935 L41.0381731,30.7968187 L41.1182164,30.7968187 L46.014195,15.8820935 L51.6439035,15.8820935 L51.6439035,35.3859649 L47.788487,35.3859649 L47.788487,26.1543103 C47.788487,25.7185171 47.7951572,25.2160284 47.8084978,24.6468292 C47.8218384,24.0776299 47.8818703,22.565717 47.9885951,20.1110451 L47.8685303,20.1110451 L42.8391462,35.3859649 L39.0504325,35.3859649 Z M60.6887905,24.5401048 L62.0228446,24.5401048 C63.3302242,24.5401048 64.2951803,24.3222115 64.917742,23.8864183 C65.5403038,23.4506251 65.8515799,22.7658175 65.8515799,21.831975 C65.8515799,20.9070261 65.5336336,20.2488993 64.8977312,19.8575748 C64.2618289,19.4662503 63.2768621,19.270591 61.9428013,19.270591 L60.6887905,19.270591 L60.6887905,24.5401048 Z M60.6887905,27.9019212 L60.6887905,35.3859649 L56.5532227,35.3859649 L56.5532227,15.8820935 L62.2362932,15.8820935 C64.8866274,15.8820935 66.8476673,16.3645716 68.119472,17.3295423 C69.3912766,18.2945129 70.0271694,19.7597344 70.0271694,21.7252506 C70.0271694,22.8725429 69.7114464,23.8930841 69.0799909,24.7869049 C68.4485355,25.6807256 67.5547282,26.381097 66.3985421,26.8880401 C69.3334759,31.2726533 71.245601,34.1052665 72.1349749,35.3859649 L67.5458287,35.3859649 L62.8899798,27.9019212 L60.6887905,27.9019212 Z" id="CMR" fill="#FFFFFF" sketch:type="MSShapeGroup"></path>
            </g>
        </g>
    </g>
</svg>