<?xml version="1.0" encoding="UTF-8" standalone="no"?>
<svg width="204px" height="52px" viewBox="0 0 204 52" version="1.1" xmlns="http://www.w3.org/2000/svg" xmlns:xlink="http://www.w3.org/1999/xlink" xmlns:sketch="http://www.bohemiancoding.com/sketch/ns">
    <!-- Generator: Sketch 3.4 (15575) - http://www.bohemiancoding.com/sketch -->
    <title>Group</title>
    <desc>Created with Sketch.</desc>
    <defs></defs>
    <g id="Welcome" stroke="none" stroke-width="1" fill="none" fill-rule="evenodd" sketch:type="MSPage">
        <g id="Desktop-HD" sketch:type="MSArtboardGroup" transform="translate(-155.000000, -23.000000)">
            <g id="Group" sketch:type="MSLayerGroup" transform="translate(155.000000, 23.000000)">
                <rect id="Rectangle-2" fill="#2C3E4F" sketch:type="MSShapeGroup" x="0" y="0" width="83.7857143" height="52"></rect>
                <rect id="Rectangle-2" fill="#2E81B7" sketch:type="MSShapeGroup" x="83.7857143" y="0" width="120.214286" height="52"></rect>
                <path d="M105.704224,35.3900768 L101.008353,20.0621573 L100.888288,20.0621573 C101.057269,23.1803199 101.141759,25.2605485 101.141759,26.3029057 L101.141759,35.3900768 L97.4464286,35.3900768 L97.4464286,15.852659 L103.076137,15.852659 L107.691964,30.7930373 L107.772008,30.7930373 L112.667986,15.852659 L118.297695,15.852659 L118.297695,35.3900768 L114.442278,35.3900768 L114.442278,26.1425439 C114.442278,25.7060011 114.448948,25.2026481 114.462289,24.6324698 C114.47563,24.0622916 114.535661,22.5477782 114.642386,20.0888843 L114.522321,20.0888843 L109.492937,35.3900768 L105.704224,35.3900768 Z M132.358625,35.3900768 L131.571533,33.3588268 L131.464809,33.3588268 C130.779991,34.2230032 130.075173,34.8221269 129.350333,35.1562157 C128.625493,35.4903046 127.680548,35.6573465 126.515468,35.6573465 C125.083576,35.6573465 123.956312,35.247537 123.133641,34.4279057 C122.31097,33.6082744 121.899641,32.4412082 121.899641,30.9266721 C121.899641,29.3408638 122.453268,28.1715704 123.560538,27.4187569 C124.667809,26.6659433 126.337583,26.2494522 128.569911,26.1692708 L131.157976,26.0890899 L131.157976,25.4342791 C131.157976,23.919743 130.384233,23.1624863 128.836722,23.1624863 C127.644961,23.1624863 126.244218,23.5232968 124.634452,24.2449287 L123.287057,21.4920504 C125.003549,20.5922378 126.90678,20.1423383 128.996809,20.1423383 C130.9979,20.1423383 132.532047,20.5788745 133.599295,21.45196 C134.666544,22.3250455 135.20016,23.6524719 135.20016,25.4342791 L135.20016,35.3900768 L132.358625,35.3900768 Z M131.157976,28.4677906 L129.583793,28.5212445 C128.400925,28.5568807 127.520458,28.7706943 126.942365,29.1626919 C126.364272,29.5546895 126.07523,30.1515859 126.07523,30.9533991 C126.07523,32.1026647 126.733357,32.6772889 128.04963,32.6772889 C128.992367,32.6772889 129.7461,32.4055674 130.310852,31.8621162 C130.875604,31.318665 131.157976,30.597044 131.157976,29.6972314 L131.157976,28.4677906 Z M147.713588,20.1690652 C148.265,20.1690652 148.723021,20.2091553 149.087664,20.2893366 L148.780831,24.1112939 C148.451763,24.0222035 148.051551,23.977659 147.580183,23.977659 C146.281697,23.977659 145.270049,24.3117428 144.54521,24.9799205 C143.82037,25.6480982 143.457955,26.5835329 143.457955,27.7862527 L143.457955,35.3900768 L139.38909,35.3900768 L139.38909,20.4496985 L142.470755,20.4496985 L143.07108,22.962034 L143.271188,22.962034 C143.733662,22.1245846 144.358438,21.4497353 145.145534,20.9374657 C145.93263,20.4251962 146.788639,20.1690652 147.713588,20.1690652 L147.713588,20.1690652 Z M151.622367,16.5876508 C151.622367,15.2602044 152.360536,14.5964912 153.836897,14.5964912 C155.313257,14.5964912 156.051426,15.2602044 156.051426,16.5876508 C156.051426,17.2201923 155.866884,17.7124092 155.497794,18.0643161 C155.128704,18.416223 154.575077,18.5921738 153.836897,18.5921738 C152.360536,18.5921738 151.622367,17.9240061 151.622367,16.5876508 L151.622367,16.5876508 Z M155.864659,35.3900768 L151.795794,35.3900768 L151.795794,20.4496985 L155.864659,20.4496985 L155.864659,35.3900768 Z M173.901071,35.3900768 L169.832206,35.3900768 L169.832206,26.6637198 C169.832206,25.5857265 169.640993,24.7772436 169.258562,24.238247 C168.876132,23.6992503 168.26692,23.429756 167.430908,23.429756 C166.29251,23.429756 165.469851,23.8106116 164.962908,24.5723342 C164.455965,25.3340567 164.202497,26.5968936 164.202497,28.3608827 L164.202497,35.3900768 L160.133632,35.3900768 L160.133632,20.4496985 L163.241978,20.4496985 L163.78894,22.3606771 L164.01573,22.3606771 C164.46931,21.6390452 165.094086,21.0933749 165.890076,20.7236499 C166.686065,20.353925 167.59099,20.1690652 168.604876,20.1690652 C170.339155,20.1690652 171.655408,20.6390098 172.553676,21.5789131 C173.451944,22.5188164 173.901071,23.8751967 173.901071,25.6480948 L173.901071,35.3900768 Z M184.266671,23.0689419 C183.403979,23.0689419 182.728065,23.3428906 182.238909,23.8907963 C181.749753,24.438702 181.469605,25.2160037 181.398455,26.2227248 L187.108207,26.2227248 C187.090419,25.2160037 186.828058,24.438702 186.321115,23.8907963 C185.814172,23.3428906 185.129364,23.0689419 184.266671,23.0689419 L184.266671,23.0689419 Z M184.840315,35.6573465 C182.439005,35.6573465 180.562454,34.9936333 179.210606,33.666187 C177.858758,32.3387406 177.182844,30.4589623 177.182844,28.0267955 C177.182844,25.5233565 177.80762,23.5878975 179.05719,22.2203605 C180.30676,20.8528235 182.034343,20.1690652 184.23999,20.1690652 C186.347806,20.1690652 187.988676,20.7704161 189.16265,21.973136 C190.336623,23.1758558 190.923601,24.837366 190.923601,26.9577166 L190.923601,28.9355126 L181.305071,28.9355126 C181.34954,30.0936873 181.691944,30.9979408 182.332293,31.6483004 C182.972642,32.2986601 183.870896,32.623835 185.027082,32.623835 C185.92535,32.623835 186.774689,32.5302915 187.575126,32.3432018 C188.375562,32.156112 189.211561,31.8576638 190.083147,31.4478481 L190.083147,34.601631 C189.371648,34.9579925 188.611245,35.2230323 187.801915,35.3967585 C186.992585,35.5704847 186.005394,35.6573465 184.840315,35.6573465 L184.840315,35.6573465 Z" id="Marine" fill="#ECF0F1" sketch:type="MSShapeGroup"></path>
                <path d="M21.9016113,18.9565515 C20.3452071,18.9565515 19.1401235,19.5423119 18.2863246,20.7138501 C17.4325257,21.8853883 17.0056327,23.5179446 17.0056327,25.611568 C17.0056327,29.9680865 18.6376092,32.146313 21.9016113,32.146313 C23.2712471,32.146313 24.9299045,31.8033203 26.8776332,31.1173246 L26.8776332,34.5918311 C25.2767603,35.2600088 23.4891456,35.5940927 21.5147356,35.5940927 C18.677633,35.5940927 16.5075933,34.7321564 15.0045515,33.0082579 C13.5015096,31.2843595 12.75,28.809912 12.75,25.584841 C12.75,23.5535809 13.1190846,21.7740277 13.8572649,20.246128 C14.5954452,18.7182284 15.6560077,17.5467077 17.038984,16.731531 C18.4219604,15.9163542 20.0428199,15.5087719 21.9016113,15.5087719 C23.7959777,15.5087719 25.6992092,15.9675804 27.611363,16.8852111 L26.2773089,20.2528098 C25.5480223,19.9053574 24.8142999,19.6024547 24.0761196,19.3440927 C23.3379392,19.0857306 22.6131104,18.9565515 21.9016113,18.9565515 L21.9016113,18.9565515 Z M39.2843366,35.3268229 L34.5884661,19.9989035 L34.4684012,19.9989035 C34.6373823,23.117066 34.7218715,25.1972947 34.7218715,26.2396519 L34.7218715,35.3268229 L31.0265416,35.3268229 L31.0265416,15.7894052 L36.65625,15.7894052 L41.2720773,30.7297834 L41.3521205,30.7297834 L46.2480992,15.7894052 L51.8778076,15.7894052 L51.8778076,35.3268229 L48.0223912,35.3268229 L48.0223912,26.07929 C48.0223912,25.6427473 48.0290614,25.1393943 48.042402,24.569216 C48.0557426,23.9990377 48.1157744,22.4845244 48.2224993,20.0256305 L48.1024344,20.0256305 L43.0730504,35.3268229 L39.2843366,35.3268229 Z M60.9226946,24.4623081 L62.2567487,24.4623081 C63.5641283,24.4623081 64.5290845,24.24404 65.1516462,23.8074973 C65.7742079,23.3709545 66.0854841,22.684969 66.0854841,21.7495203 C66.0854841,20.8229806 65.7675377,20.1637218 65.1316354,19.7717242 C64.4957331,19.3797267 63.5107663,19.1837308 62.1767055,19.1837308 L60.9226946,19.1837308 L60.9226946,24.4623081 Z M60.9226946,27.8299068 L60.9226946,35.3268229 L56.7871268,35.3268229 L56.7871268,15.7894052 L62.4701974,15.7894052 C65.1205315,15.7894052 67.0815715,16.2727131 68.3533761,17.2393435 C69.6251807,18.2059739 70.2610735,19.6737155 70.2610735,21.6426124 C70.2610735,22.791878 69.9453505,23.8141745 69.3138951,24.7095326 C68.6824396,25.6048907 67.7886323,26.3064668 66.6324463,26.8142818 C69.56738,31.2064364 71.4795052,34.0439218 72.368879,35.3268229 L67.7797328,35.3268229 L63.1238839,27.8299068 L60.9226946,27.8299068 Z" id="CMR" fill="#ECF0F1" sketch:type="MSShapeGroup"></path>
            </g>
        </g>
    </g>
</svg>